<?xml version="1.0" standalone="no"?>
<!DOCTYPE svg PUBLIC "-//W3C//DTD SVG 20010904//EN"
 "http://www.w3.org/TR/2001/REC-SVG-20010904/DTD/svg10.dtd">
<svg version="1.0" xmlns="http://www.w3.org/2000/svg"
 width="16.000000pt" height="16.000000pt" viewBox="0 0 16.000000 16.000000"
 preserveAspectRatio="xMidYMid meet">
<metadata>
Created by potrace 1.11, written by Peter Selinger 2001-2013
</metadata>
<g transform="translate(0.000000,16.000000) scale(0.009877,-0.009877)"
fill="#000000" stroke="none">
<path d="M564 1181 c-25 -15 -42 -44 -85 -145 -34 -79 -60 -128 -71 -132 -10
-3 -30 -18 -46 -33 -20 -21 -42 -31 -79 -36 l-52 -7 -4 34 -3 33 -8 -32 c-9
-33 -36 -46 -36 -18 0 13 -2 14 -14 3 -8 -7 -12 -16 -9 -20 2 -5 0 -8 -6 -8
-5 0 -13 5 -16 10 -5 8 -11 7 -21 -1 -14 -11 -31 -15 -83 -18 -37 -2 -16 -14
31 -18 23 -2 48 -9 56 -16 12 -9 16 -9 19 1 7 18 20 14 26 -8 5 -21 29 -29 25
-9 -2 6 2 13 8 16 6 2 15 -11 19 -29 8 -31 8 -31 12 -8 3 14 9 29 14 35 17 17
92 4 123 -21 16 -14 51 -36 77 -50 27 -13 49 -29 49 -35 0 -27 54 -120 92
-157 66 -66 117 -86 223 -86 74 -1 99 3 142 23 67 30 144 111 168 176 24 66
28 69 76 85 22 8 49 24 59 38 15 18 32 25 75 29 45 5 56 3 55 -8 -1 -8 -2 -23
-1 -33 1 -19 1 -19 15 -1 8 11 12 25 9 31 -2 7 0 15 6 19 10 5 15 -7 12 -27
-3 -18 21 -6 26 12 6 23 19 26 26 8 4 -10 8 -10 14 -2 4 6 33 14 62 18 30 4
57 9 60 11 3 4 -54 7 -75 4 -3 0 -15 6 -28 15 -15 9 -27 11 -33 5 -6 -6 -14
-4 -23 6 -16 19 -30 19 -30 -1 0 -8 -5 -12 -10 -9 -6 4 -8 10 -5 15 3 4 -4 19
-16 31 -15 18 -19 19 -15 7 3 -10 3 -25 -1 -33 -8 -21 -92 -10 -113 15 -8 10
-33 29 -55 43 -36 22 -45 37 -88 141 -35 83 -57 122 -75 134 -22 14 -57 17
-237 19 -190 2 -214 1 -241 -16z m465 -96 c17 -17 81 -129 81 -142 0 -12 -48
13 -74 39 -79 79 -217 111 -326 77 -42 -14 -126 -65 -143 -88 -7 -9 -29 -22
-49 -28 l-37 -11 33 67 c33 65 57 94 85 103 7 2 102 4 212 3 185 0 200 -1 218
-20z"/>
</g>
</svg>
